# xmcd
# Copyright (C) 1995-1998 Ti Kan
#
# Track frame offsets:
#       150
#       11787
#       24164
#       34064
#       45321
#       58153
#       72690
#       84589
#       97070
#       114665
#       129169
#
# Disc length: 1885 seconds
#
# Revision: 0
# Processed by: cddbd v1.5.2PL0 Copyright (c) Steve Scherf et al.
# Submitted via: CD-Import v1.0
#
DISCID=8f075b0b
DTITLE=Beatsteaks - Limbo Messiah
DYEAR=07
DGENRE=
TTITLE0=As I Please
TTITLE1=Jane Became Insane
TTITLE2=Sharp, Cool and Collected
TTITLE3=Meantime
TTITLE4=Demons Galore
TTITLE5=Cut Off The Top
TTITLE6=Bad Brain
TTITLE7=Soljanka
TTITLE8=Soljanka
TTITLE9=Hail To The Freaks
TTITLE10=E-G-O
EXTD=
EXTT0=
EXTT1=
EXTT2=
EXTT3=
EXTT4=
EXTT5=
EXTT6=
EXTT7=
EXTT8=
EXTT9=
EXTT10=
PLAYORDER=
